<svg width="3840" height="1080" viewBox="0 0 3840 1080" fill="none" xmlns="http://www.w3.org/2000/svg">
<g clip-path="url(#clip0_1_147)">
<rect width="3840" height="1080" transform="matrix(-1 0 0 1 3840 0)" fill="#0E0915"/>
<path opacity="0.05" d="M3840 -121.151C3707.86 -9.77147 3494.52 16.4413 3200 -42.5126C2884.61 16.4413 2671.28 -8.42998 2560 -117.126C2317.36 -8.42998 2104.03 -4.97525 1920 -106.762C1659.9 -4.97525 1446.57 -23.5654 1280 -162.533C1077.7 -23.5654 864.37 -20.3321 640 -152.833C400.067 -20.3321 186.734 -40.9439 -5.72205e-05 -214.668V518.418H3840V-51.9619V-121.151Z" fill="#E4AD1F"/>
<path opacity="0.12" d="M3840 -19.9008C3707.86 91.4785 3494.52 117.691 3200 58.7374C2884.61 117.691 2671.28 92.82 2560 -15.8763C2317.36 92.82 2104.03 96.2747 1920 -5.51219C1659.9 96.2747 1446.57 77.6846 1280 -61.2826C1077.7 77.6846 864.37 80.9179 640 -51.5826C400.067 80.9179 186.734 60.3061 -5.72205e-05 -113.418V619.668H3840V49.2881V-19.9008Z" fill="#E4AD1F"/>
<path opacity="0.2" d="M3840 81.3492C3707.86 192.729 3494.52 218.941 3200 159.987C2884.61 218.941 2671.28 194.07 2560 85.3737C2317.36 194.07 2104.03 197.525 1920 95.7378C1659.9 197.525 1446.57 178.935 1280 39.9674C1077.7 178.935 864.37 182.168 640 49.6674C400.067 182.168 186.734 161.556 -5.72205e-05 -12.1682V720.918H3840V150.538V81.3492Z" fill="#E4AD1F"/>
<path opacity="0.27" d="M3840 182.599C3707.86 293.979 3494.52 320.191 3200 261.237C2884.61 320.191 2671.28 295.32 2560 186.624C2317.36 295.32 2104.03 298.775 1920 196.988C1659.9 298.775 1446.57 280.185 1280 141.217C1077.7 280.185 864.37 283.418 640 150.917C400.067 283.418 186.734 262.806 -5.72205e-05 89.0818V822.168H3840V251.788V182.599Z" fill="#E4AD1F"/>
<path opacity="0.34" d="M3840 283.849C3707.86 395.229 3494.52 421.441 3200 362.487C2884.61 421.441 2671.28 396.57 2560 287.874C2317.36 396.57 2104.03 400.025 1920 298.238C1659.9 400.025 1446.57 381.435 1280 242.467C1077.7 381.435 864.37 384.668 640 252.167C400.067 384.668 186.734 364.056 -5.72205e-05 190.332V923.418H3840V353.038V283.849Z" fill="#E4AD1F"/>
<path opacity="0.42" d="M3840 385.099C3707.86 496.479 3494.52 522.691 3200 463.737C2884.61 522.691 2671.28 497.82 2560 389.124C2317.36 497.82 2104.03 501.275 1920 399.488C1659.9 501.275 1446.57 482.685 1280 343.717C1077.7 482.685 864.37 485.918 640 353.417C400.067 485.918 186.734 465.306 -5.72205e-05 291.582V1024.67H3840V454.288V385.099Z" fill="#E4AD1F"/>
<path opacity="0.49" d="M3840 486.349C3707.86 597.729 3494.52 623.941 3200 564.987C2884.61 623.941 2671.28 599.07 2560 490.374C2317.36 599.07 2104.03 602.525 1920 500.738C1659.9 602.525 1446.57 583.935 1280 444.967C1077.7 583.935 864.37 587.168 640 454.667C400.067 587.168 186.734 566.556 -5.72205e-05 392.832V1125.92H3840V555.538V486.349Z" fill="#E4AD1F"/>
<path opacity="0.56" d="M3840 587.599C3707.86 698.979 3494.52 725.191 3200 666.237C2884.61 725.191 2671.28 700.32 2560 591.624C2317.36 700.32 2104.03 703.775 1920 601.988C1659.9 703.775 1446.57 685.185 1280 546.217C1077.7 685.185 864.37 688.418 640 555.917C400.067 688.418 186.734 667.806 -5.72205e-05 494.082V1227.17H3840V656.788V587.599Z" fill="#E4AD1F"/>
<path opacity="0.63" d="M3840 688.849C3707.86 800.229 3494.52 826.441 3200 767.487C2884.61 826.441 2671.28 801.57 2560 692.874C2317.36 801.57 2104.03 805.025 1920 703.238C1659.9 805.025 1446.57 786.435 1280 647.467C1077.7 786.435 864.37 789.668 640 657.167C400.067 789.668 186.734 769.056 -5.72205e-05 595.332V1328.42H3840V758.038V688.849Z" fill="#E4AD1F"/>
<path opacity="0.71" d="M3840 790.099C3707.86 901.479 3494.52 927.691 3200 868.737C2884.61 927.691 2671.28 902.82 2560 794.124C2317.36 902.82 2104.03 906.275 1920 804.488C1659.9 906.275 1446.57 887.685 1280 748.717C1077.7 887.685 864.37 890.918 640 758.417C400.067 890.918 186.734 870.306 -5.72205e-05 696.582V1429.67H3840V859.288V790.099Z" fill="#E4AD1F"/>
<path opacity="0.78" d="M3840 891.349C3707.86 1002.73 3494.52 1028.94 3200 969.987C2884.61 1028.94 2671.28 1004.07 2560 895.374C2317.36 1004.07 2104.03 1007.52 1920 905.738C1659.9 1007.52 1446.57 988.935 1280 849.967C1077.7 988.935 864.37 992.168 640 859.667C400.067 992.168 186.734 971.556 -5.72205e-05 797.832V1530.92H3840V960.538V891.349Z" fill="#E4AD1F"/>
<path opacity="0.85" d="M3840 992.599C3707.86 1103.98 3494.52 1130.19 3200 1071.24C2884.61 1130.19 2671.28 1105.32 2560 996.624C2317.36 1105.32 2104.03 1108.77 1920 1006.99C1659.9 1108.77 1446.57 1090.18 1280 951.217C1077.7 1090.18 864.37 1093.42 640 960.917C400.067 1093.42 186.734 1072.81 -5.72205e-05 899.082V1632.17H3840V1061.79V992.599Z" fill="#E4AD1F"/>
<path opacity="0.93" d="M3840 1093.85C3707.86 1205.23 3494.52 1231.44 3200 1172.49C2884.61 1231.44 2671.28 1206.57 2560 1097.87C2317.36 1206.57 2104.03 1210.02 1920 1108.24C1659.9 1210.02 1446.57 1191.43 1280 1052.47C1077.7 1191.43 864.37 1194.67 640 1062.17C400.067 1194.67 186.734 1174.06 -5.72205e-05 1000.33V1733.42H3840V1163.04V1093.85Z" fill="#E4AD1F"/>
</g>
<defs>
<clipPath id="clip0_1_147">
<rect width="3840" height="1080" fill="white" transform="matrix(-1 0 0 1 3840 0)"/>
</clipPath>
</defs>
</svg>
