<svg width="3840" height="1080" viewBox="0 0 3840 1080" fill="none" xmlns="http://www.w3.org/2000/svg">
<g clip-path="url(#clip0_1_54)">
<rect width="3840" height="1080" fill="#0E0915"/>
<path opacity="0.05" d="M-1.04393 -34.4003C82.2894 -22.0252 235.623 41.5935 398.956 24.9998C562.289 8.406 622.956 -106.457 782.956 -114.05C942.956 -121.644 1006.96 -15.3878 1166.96 -11.4502C1326.96 -7.51275 1390.96 -106.119 1550.96 -95.1503C1710.96 -84.1815 1774.96 39.231 1934.96 41.1998C2094.96 43.1685 2158.96 -75.294 2318.96 -85.7003C2478.96 -96.1065 2542.96 -11.0002 2702.96 -8.75025C2862.96 -6.50025 2926.96 -76.0253 3086.96 -74.9003C3246.96 -73.7753 3310.96 -0.2565 3470.96 -3.35025C3630.96 -6.444 3691.62 -192.969 3854.96 -89.7503C4018.29 13.4685 5221.62 230.256 4254.96 492.1C3288.29 753.944 264.956 1026.47 -785.044 1167.1" fill="#E21D6F"/>
<path opacity="0.14" d="M-1.04393 66.8497C82.2894 79.2248 235.623 142.844 398.956 126.25C562.289 109.656 622.956 -5.20651 782.956 -12.8003C942.956 -20.394 1006.96 85.8622 1166.96 89.7998C1326.96 93.7373 1390.96 -4.86901 1550.96 6.09974C1710.96 17.0685 1774.96 140.481 1934.96 142.45C2094.96 144.419 2158.96 25.956 2318.96 15.5497C2478.96 5.14349 2542.96 90.2498 2702.96 92.4998C2862.96 94.7498 2926.96 25.2247 3086.96 26.3497C3246.96 27.4747 3310.96 100.994 3470.96 97.8998C3630.96 94.806 3691.62 -91.719 3854.96 11.4997C4018.29 114.718 5221.62 331.506 4254.96 593.35C3288.29 855.194 264.956 1127.72 -785.044 1268.35" fill="#E21D6F"/>
<path opacity="0.22" d="M-1.04393 168.1C82.2894 180.475 235.623 244.094 398.956 227.5C562.289 210.906 622.956 96.0435 782.956 88.4497C942.956 80.856 1006.96 187.112 1166.96 191.05C1326.96 194.987 1390.96 96.381 1550.96 107.35C1710.96 118.318 1774.96 241.731 1934.96 243.7C2094.96 245.669 2158.96 127.206 2318.96 116.8C2478.96 106.393 2542.96 191.5 2702.96 193.75C2862.96 196 2926.96 126.475 3086.96 127.6C3246.96 128.725 3310.96 202.244 3470.96 199.15C3630.96 196.056 3691.62 9.53099 3854.96 112.75C4018.29 215.968 5221.62 432.756 4254.96 694.6C3288.29 956.444 264.956 1228.97 -785.044 1369.6" fill="#E21D6F"/>
<path opacity="0.31" d="M-1.04393 269.35C82.2894 281.725 235.623 345.344 398.956 328.75C562.289 312.156 622.956 197.293 782.956 189.7C942.956 182.106 1006.96 288.362 1166.96 292.3C1326.96 296.237 1390.96 197.631 1550.96 208.6C1710.96 219.568 1774.96 342.981 1934.96 344.95C2094.96 346.919 2158.96 228.456 2318.96 218.05C2478.96 207.643 2542.96 292.75 2702.96 295C2862.96 297.25 2926.96 227.725 3086.96 228.85C3246.96 229.975 3310.96 303.494 3470.96 300.4C3630.96 297.306 3691.62 110.781 3854.96 214C4018.29 317.218 5221.62 534.006 4254.96 795.85C3288.29 1057.69 264.956 1330.22 -785.044 1470.85" fill="#E21D6F"/>
<path opacity="0.4" d="M-1.04393 370.6C82.2894 382.975 235.623 446.594 398.956 430C562.289 413.406 622.956 298.543 782.956 290.95C942.956 283.356 1006.96 389.612 1166.96 393.55C1326.96 397.487 1390.96 298.881 1550.96 309.85C1710.96 320.818 1774.96 444.231 1934.96 446.2C2094.96 448.169 2158.96 329.706 2318.96 319.3C2478.96 308.893 2542.96 394 2702.96 396.25C2862.96 398.5 2926.96 328.975 3086.96 330.1C3246.96 331.225 3310.96 404.744 3470.96 401.65C3630.96 398.556 3691.62 212.031 3854.96 315.25C4018.29 418.468 5221.62 635.256 4254.96 897.1C3288.29 1158.94 264.956 1431.47 -785.044 1572.1" fill="#E21D6F"/>
<path opacity="0.48" d="M-1.04393 471.85C82.2894 484.225 235.623 547.844 398.956 531.25C562.289 514.656 622.956 399.793 782.956 392.2C942.956 384.606 1006.96 490.862 1166.96 494.8C1326.96 498.737 1390.96 400.131 1550.96 411.1C1710.96 422.068 1774.96 545.481 1934.96 547.45C2094.96 549.419 2158.96 430.956 2318.96 420.55C2478.96 410.143 2542.96 495.25 2702.96 497.5C2862.96 499.75 2926.96 430.225 3086.96 431.35C3246.96 432.475 3310.96 505.994 3470.96 502.9C3630.96 499.806 3691.62 313.281 3854.96 416.5C4018.29 519.718 5221.62 736.506 4254.96 998.35C3288.29 1260.19 264.956 1532.72 -785.044 1673.35" fill="#E21D6F"/>
<path opacity="0.57" d="M-1.04393 573.1C82.2894 585.475 235.623 649.094 398.956 632.5C562.289 615.906 622.956 501.043 782.956 493.45C942.956 485.856 1006.96 592.112 1166.96 596.05C1326.96 599.987 1390.96 501.381 1550.96 512.35C1710.96 523.318 1774.96 646.731 1934.96 648.7C2094.96 650.669 2158.96 532.206 2318.96 521.8C2478.96 511.393 2542.96 596.5 2702.96 598.75C2862.96 601 2926.96 531.475 3086.96 532.6C3246.96 533.725 3310.96 607.244 3470.96 604.15C3630.96 601.056 3691.62 414.531 3854.96 517.75C4018.29 620.968 5221.62 837.756 4254.96 1099.6C3288.29 1361.44 264.956 1633.97 -785.044 1774.6" fill="#E21D6F"/>
<path opacity="0.65" d="M-1.04393 674.35C82.2894 686.725 235.623 750.344 398.956 733.75C562.289 717.156 622.956 602.293 782.956 594.7C942.956 587.106 1006.96 693.362 1166.96 697.3C1326.96 701.237 1390.96 602.631 1550.96 613.6C1710.96 624.568 1774.96 747.981 1934.96 749.95C2094.96 751.919 2158.96 633.456 2318.96 623.05C2478.96 612.643 2542.96 697.75 2702.96 700C2862.96 702.25 2926.96 632.725 3086.96 633.85C3246.96 634.975 3310.96 708.494 3470.96 705.4C3630.96 702.306 3691.62 515.781 3854.96 619C4018.29 722.218 5221.62 939.006 4254.96 1200.85C3288.29 1462.69 264.956 1735.22 -785.044 1875.85" fill="#E21D6F"/>
<path opacity="0.74" d="M-1.04393 775.6C82.2894 787.975 235.623 851.594 398.956 835C562.289 818.406 622.956 703.543 782.956 695.95C942.956 688.356 1006.96 794.612 1166.96 798.55C1326.96 802.487 1390.96 703.881 1550.96 714.85C1710.96 725.818 1774.96 849.231 1934.96 851.2C2094.96 853.169 2158.96 734.706 2318.96 724.3C2478.96 713.893 2542.96 799 2702.96 801.25C2862.96 803.5 2926.96 733.975 3086.96 735.1C3246.96 736.225 3310.96 809.744 3470.96 806.65C3630.96 803.556 3691.62 617.031 3854.96 720.25C4018.29 823.468 5221.62 1040.26 4254.96 1302.1C3288.29 1563.94 264.956 1836.47 -785.044 1977.1" fill="#E21D6F"/>
<path opacity="0.83" d="M-1.04393 876.85C82.2894 889.225 235.623 952.844 398.956 936.25C562.289 919.656 622.956 804.793 782.956 797.2C942.956 789.606 1006.96 895.862 1166.96 899.8C1326.96 903.737 1390.96 805.131 1550.96 816.1C1710.96 827.068 1774.96 950.481 1934.96 952.45C2094.96 954.419 2158.96 835.956 2318.96 825.55C2478.96 815.143 2542.96 900.25 2702.96 902.5C2862.96 904.75 2926.96 835.225 3086.96 836.35C3246.96 837.475 3310.96 910.994 3470.96 907.9C3630.96 904.806 3691.62 718.281 3854.96 821.5C4018.29 924.718 5221.62 1141.51 4254.96 1403.35C3288.29 1665.19 264.956 1937.72 -785.044 2078.35" fill="#E21D6F"/>
<path opacity="0.91" d="M-1.04393 978.1C82.2894 990.475 235.623 1054.09 398.956 1037.5C562.289 1020.91 622.956 906.043 782.956 898.45C942.956 890.856 1006.96 997.112 1166.96 1001.05C1326.96 1004.99 1390.96 906.381 1550.96 917.35C1710.96 928.318 1774.96 1051.73 1934.96 1053.7C2094.96 1055.67 2158.96 937.206 2318.96 926.8C2478.96 916.393 2542.96 1001.5 2702.96 1003.75C2862.96 1006 2926.96 936.475 3086.96 937.6C3246.96 938.725 3310.96 1012.24 3470.96 1009.15C3630.96 1006.06 3691.62 819.531 3854.96 922.75C4018.29 1025.97 5221.62 1242.76 4254.96 1504.6C3288.29 1766.44 264.956 2038.97 -785.044 2179.6" fill="#E21D6F"/>
<path d="M-1.04393 1079.35C82.2894 1091.72 235.623 1155.34 398.956 1138.75C562.289 1122.16 622.956 1007.29 782.956 999.7C942.956 992.106 1006.96 1098.36 1166.96 1102.3C1326.96 1106.24 1390.96 1007.63 1550.96 1018.6C1710.96 1029.57 1774.96 1152.98 1934.96 1154.95C2094.96 1156.92 2158.96 1038.46 2318.96 1028.05C2478.96 1017.64 2542.96 1102.75 2702.96 1105C2862.96 1107.25 2926.96 1037.72 3086.96 1038.85C3246.96 1039.97 3310.96 1113.49 3470.96 1110.4C3630.96 1107.31 3691.62 920.781 3854.96 1024C4018.29 1127.22 5221.62 1344.01 4254.96 1605.85C3288.29 1867.69 264.956 2140.22 -785.044 2280.85" fill="#E21D6F"/>
</g>
<defs>
<clipPath id="clip0_1_54">
<rect width="3840" height="1080" fill="white"/>
</clipPath>
</defs>
</svg>
