<svg width="3840" height="1080" viewBox="0 0 3840 1080" fill="none" xmlns="http://www.w3.org/2000/svg">
<g clip-path="url(#clip0_1_74)">
<rect width="3840" height="1080" fill="#0E0915"/>
<path opacity="0.05" d="M0 -211.65C365.714 -96.6226 548.571 -98.3449 548.571 -216.817C914.286 -98.3449 1097.14 -97.6142 1097.14 -214.625C1462.86 -97.6142 1645.71 -97.2939 1645.71 -213.664C2011.43 -97.2939 2194.29 -97.8268 2194.29 -215.263C2560 -97.8268 2742.86 -98.5363 2742.86 -217.391C3108.57 -98.5363 3291.43 -96.4641 3291.43 -211.175C3657.14 -96.4641 3840 -97.639 3840 -214.699V433.391H0V-210.239V-211.65Z" fill="#288ED7"/>
<path opacity="0.12" d="M0 -103.65C365.714 11.3774 548.571 9.65511 548.571 -108.817C914.286 9.65511 1097.14 10.3858 1097.14 -106.625C1462.86 10.3858 1645.71 10.7061 1645.71 -105.664C2011.43 10.7061 2194.29 10.1732 2194.29 -107.263C2560 10.1732 2742.86 9.4637 2742.86 -109.391C3108.57 9.4637 3291.43 11.5359 3291.43 -103.175C3657.14 11.5359 3840 10.361 3840 -106.699V541.391H0V-102.239V-103.65Z" fill="#288ED7"/>
<path opacity="0.2" d="M0 4.34985C365.714 119.377 548.571 117.655 548.571 -0.816885C914.286 117.655 1097.14 118.386 1097.14 1.37518C1462.86 118.386 1645.71 118.706 1645.71 2.33618C2011.43 118.706 2194.29 118.173 2194.29 0.73746C2560 118.173 2742.86 117.464 2742.86 -1.39111C3108.57 117.464 3291.43 119.536 3291.43 4.82532C3657.14 119.536 3840 118.361 3840 1.30069V649.391H0V5.7614V4.34985Z" fill="#288ED7"/>
<path opacity="0.27" d="M0 112.35C365.714 227.377 548.571 225.655 548.571 107.183C914.286 225.655 1097.14 226.386 1097.14 109.375C1462.86 226.386 1645.71 226.706 1645.71 110.336C2011.43 226.706 2194.29 226.173 2194.29 108.737C2560 226.173 2742.86 225.464 2742.86 106.609C3108.57 225.464 3291.43 227.536 3291.43 112.825C3657.14 227.536 3840 226.361 3840 109.301V757.391H0V113.761V112.35Z" fill="#288ED7"/>
<path opacity="0.34" d="M0 220.35C365.714 335.377 548.571 333.655 548.571 215.183C914.286 333.655 1097.14 334.386 1097.14 217.375C1462.86 334.386 1645.71 334.706 1645.71 218.336C2011.43 334.706 2194.29 334.173 2194.29 216.737C2560 334.173 2742.86 333.464 2742.86 214.609C3108.57 333.464 3291.43 335.536 3291.43 220.825C3657.14 335.536 3840 334.361 3840 217.301V865.391H0V221.761V220.35Z" fill="#288ED7"/>
<path opacity="0.42" d="M0 328.35C365.714 443.377 548.571 441.655 548.571 323.183C914.286 441.655 1097.14 442.386 1097.14 325.375C1462.86 442.386 1645.71 442.706 1645.71 326.336C2011.43 442.706 2194.29 442.173 2194.29 324.737C2560 442.173 2742.86 441.464 2742.86 322.609C3108.57 441.464 3291.43 443.536 3291.43 328.825C3657.14 443.536 3840 442.361 3840 325.301V973.391H0V329.761V328.35Z" fill="#288ED7"/>
<path opacity="0.49" d="M0 436.35C365.714 551.377 548.571 549.655 548.571 431.183C914.286 549.655 1097.14 550.386 1097.14 433.375C1462.86 550.386 1645.71 550.706 1645.71 434.336C2011.43 550.706 2194.29 550.173 2194.29 432.737C2560 550.173 2742.86 549.464 2742.86 430.609C3108.57 549.464 3291.43 551.536 3291.43 436.825C3657.14 551.536 3840 550.361 3840 433.301V1081.39H0V437.761V436.35Z" fill="#288ED7"/>
<path opacity="0.56" d="M0 544.35C365.714 659.377 548.571 657.655 548.571 539.183C914.286 657.655 1097.14 658.386 1097.14 541.375C1462.86 658.386 1645.71 658.706 1645.71 542.336C2011.43 658.706 2194.29 658.173 2194.29 540.737C2560 658.173 2742.86 657.464 2742.86 538.609C3108.57 657.464 3291.43 659.536 3291.43 544.825C3657.14 659.536 3840 658.361 3840 541.301V1189.39H0V545.761V544.35Z" fill="#288ED7"/>
<path opacity="0.63" d="M0 652.35C365.714 767.377 548.571 765.655 548.571 647.183C914.286 765.655 1097.14 766.386 1097.14 649.375C1462.86 766.386 1645.71 766.706 1645.71 650.336C2011.43 766.706 2194.29 766.173 2194.29 648.737C2560 766.173 2742.86 765.464 2742.86 646.609C3108.57 765.464 3291.43 767.536 3291.43 652.825C3657.14 767.536 3840 766.361 3840 649.301V1297.39H0V653.761V652.35Z" fill="#288ED7"/>
<path opacity="0.71" d="M0 760.35C365.714 875.377 548.571 873.655 548.571 755.183C914.286 873.655 1097.14 874.386 1097.14 757.375C1462.86 874.386 1645.71 874.706 1645.71 758.336C2011.43 874.706 2194.29 874.173 2194.29 756.737C2560 874.173 2742.86 873.464 2742.86 754.609C3108.57 873.464 3291.43 875.536 3291.43 760.825C3657.14 875.536 3840 874.361 3840 757.301V1405.39H0V761.761V760.35Z" fill="#288ED7"/>
<path opacity="0.78" d="M0 868.35C365.714 983.377 548.571 981.655 548.571 863.183C914.286 981.655 1097.14 982.386 1097.14 865.375C1462.86 982.386 1645.71 982.706 1645.71 866.336C2011.43 982.706 2194.29 982.173 2194.29 864.737C2560 982.173 2742.86 981.464 2742.86 862.609C3108.57 981.464 3291.43 983.536 3291.43 868.825C3657.14 983.536 3840 982.361 3840 865.301V1513.39H0V869.761V868.35Z" fill="#288ED7"/>
<path opacity="0.85" d="M0 976.35C365.714 1091.38 548.571 1089.66 548.571 971.183C914.286 1089.66 1097.14 1090.39 1097.14 973.375C1462.86 1090.39 1645.71 1090.71 1645.71 974.336C2011.43 1090.71 2194.29 1090.17 2194.29 972.737C2560 1090.17 2742.86 1089.46 2742.86 970.609C3108.57 1089.46 3291.43 1091.54 3291.43 976.825C3657.14 1091.54 3840 1090.36 3840 973.301V1621.39H0V977.761V976.35Z" fill="#288ED7"/>
<path opacity="0.93" d="M0 1084.35C365.714 1199.38 548.571 1197.66 548.571 1079.18C914.286 1197.66 1097.14 1198.39 1097.14 1081.38C1462.86 1198.39 1645.71 1198.71 1645.71 1082.34C2011.43 1198.71 2194.29 1198.17 2194.29 1080.74C2560 1198.17 2742.86 1197.46 2742.86 1078.61C3108.57 1197.46 3291.43 1199.54 3291.43 1084.83C3657.14 1199.54 3840 1198.36 3840 1081.3V1729.39H0V1085.76V1084.35Z" fill="#288ED7"/>
</g>
<defs>
<clipPath id="clip0_1_74">
<rect width="3840" height="1080" fill="white"/>
</clipPath>
</defs>
</svg>
