<svg width="3840" height="1080" viewBox="0 0 3840 1080" fill="none" xmlns="http://www.w3.org/2000/svg">
<g clip-path="url(#clip0_1_100)">
<rect width="3840" height="1080" fill="#0E0915"/>
<path opacity="0.05" d="M0 -121.151C132.143 -9.77147 345.476 16.4413 640 -42.5126C955.389 16.4413 1168.72 -8.42998 1280 -117.126C1522.64 -8.42998 1735.97 -4.97525 1920 -106.762C2180.1 -4.97525 2393.43 -23.5654 2560 -162.533C2762.3 -23.5654 2975.63 -20.3321 3200 -152.833C3439.93 -20.3321 3653.27 -40.9439 3840 -214.668V518.418H0V-51.9619V-121.151Z" fill="#188181"/>
<path opacity="0.12" d="M0 -19.9008C132.143 91.4785 345.476 117.691 640 58.7374C955.389 117.691 1168.72 92.82 1280 -15.8763C1522.64 92.82 1735.97 96.2747 1920 -5.51219C2180.1 96.2747 2393.43 77.6846 2560 -61.2826C2762.3 77.6846 2975.63 80.9179 3200 -51.5826C3439.93 80.9179 3653.27 60.3061 3840 -113.418V619.668H0V49.2881V-19.9008Z" fill="#188181"/>
<path opacity="0.2" d="M0 81.3492C132.143 192.729 345.476 218.941 640 159.987C955.389 218.941 1168.72 194.07 1280 85.3737C1522.64 194.07 1735.97 197.525 1920 95.7378C2180.1 197.525 2393.43 178.935 2560 39.9674C2762.3 178.935 2975.63 182.168 3200 49.6674C3439.93 182.168 3653.27 161.556 3840 -12.1682V720.918H0V150.538V81.3492Z" fill="#188181"/>
<path opacity="0.27" d="M0 182.599C132.143 293.979 345.476 320.191 640 261.237C955.389 320.191 1168.72 295.32 1280 186.624C1522.64 295.32 1735.97 298.775 1920 196.988C2180.1 298.775 2393.43 280.185 2560 141.217C2762.3 280.185 2975.63 283.418 3200 150.917C3439.93 283.418 3653.27 262.806 3840 89.0818V822.168H0V251.788V182.599Z" fill="#188181"/>
<path opacity="0.34" d="M0 283.849C132.143 395.229 345.476 421.441 640 362.487C955.389 421.441 1168.72 396.57 1280 287.874C1522.64 396.57 1735.97 400.025 1920 298.238C2180.1 400.025 2393.43 381.435 2560 242.467C2762.3 381.435 2975.63 384.668 3200 252.167C3439.93 384.668 3653.27 364.056 3840 190.332V923.418H0V353.038V283.849Z" fill="#188181"/>
<path opacity="0.42" d="M0 385.099C132.143 496.479 345.476 522.691 640 463.737C955.389 522.691 1168.72 497.82 1280 389.124C1522.64 497.82 1735.97 501.275 1920 399.488C2180.1 501.275 2393.43 482.685 2560 343.717C2762.3 482.685 2975.63 485.918 3200 353.417C3439.93 485.918 3653.27 465.306 3840 291.582V1024.67H0V454.288V385.099Z" fill="#188181"/>
<path opacity="0.49" d="M0 486.349C132.143 597.729 345.476 623.941 640 564.987C955.389 623.941 1168.72 599.07 1280 490.374C1522.64 599.07 1735.97 602.525 1920 500.738C2180.1 602.525 2393.43 583.935 2560 444.967C2762.3 583.935 2975.63 587.168 3200 454.667C3439.93 587.168 3653.27 566.556 3840 392.832V1125.92H0V555.538V486.349Z" fill="#188181"/>
<path opacity="0.56" d="M0 587.599C132.143 698.979 345.476 725.191 640 666.237C955.389 725.191 1168.72 700.32 1280 591.624C1522.64 700.32 1735.97 703.775 1920 601.988C2180.1 703.775 2393.43 685.185 2560 546.217C2762.3 685.185 2975.63 688.418 3200 555.917C3439.93 688.418 3653.27 667.806 3840 494.082V1227.17H0V656.788V587.599Z" fill="#188181"/>
<path opacity="0.63" d="M0 688.849C132.143 800.229 345.476 826.441 640 767.487C955.389 826.441 1168.72 801.57 1280 692.874C1522.64 801.57 1735.97 805.025 1920 703.238C2180.1 805.025 2393.43 786.435 2560 647.467C2762.3 786.435 2975.63 789.668 3200 657.167C3439.93 789.668 3653.27 769.056 3840 595.332V1328.42H0V758.038V688.849Z" fill="#188181"/>
<path opacity="0.71" d="M0 790.099C132.143 901.479 345.476 927.691 640 868.737C955.389 927.691 1168.72 902.82 1280 794.124C1522.64 902.82 1735.97 906.275 1920 804.488C2180.1 906.275 2393.43 887.685 2560 748.717C2762.3 887.685 2975.63 890.918 3200 758.417C3439.93 890.918 3653.27 870.306 3840 696.582V1429.67H0V859.288V790.099Z" fill="#188181"/>
<path opacity="0.78" d="M0 891.349C132.143 1002.73 345.476 1028.94 640 969.987C955.389 1028.94 1168.72 1004.07 1280 895.374C1522.64 1004.07 1735.97 1007.52 1920 905.738C2180.1 1007.52 2393.43 988.935 2560 849.967C2762.3 988.935 2975.63 992.168 3200 859.667C3439.93 992.168 3653.27 971.556 3840 797.832V1530.92H0V960.538V891.349Z" fill="#188181"/>
<path opacity="0.85" d="M0 992.599C132.143 1103.98 345.476 1130.19 640 1071.24C955.389 1130.19 1168.72 1105.32 1280 996.624C1522.64 1105.32 1735.97 1108.77 1920 1006.99C2180.1 1108.77 2393.43 1090.18 2560 951.217C2762.3 1090.18 2975.63 1093.42 3200 960.917C3439.93 1093.42 3653.27 1072.81 3840 899.082V1632.17H0V1061.79V992.599Z" fill="#188181"/>
<path opacity="0.93" d="M0 1093.85C132.143 1205.23 345.476 1231.44 640 1172.49C955.389 1231.44 1168.72 1206.57 1280 1097.87C1522.64 1206.57 1735.97 1210.02 1920 1108.24C2180.1 1210.02 2393.43 1191.43 2560 1052.47C2762.3 1191.43 2975.63 1194.67 3200 1062.17C3439.93 1194.67 3653.27 1174.06 3840 1000.33V1733.42H0V1163.04V1093.85Z" fill="#188181"/>
</g>
<defs>
<clipPath id="clip0_1_100">
<rect width="3840" height="1080" fill="white"/>
</clipPath>
</defs>
</svg>
